<?xml version="1.0" standalone="no"?>
<!DOCTYPE svg PUBLIC "-//W3C//DTD SVG 20010904//EN"
 "http://www.w3.org/TR/2001/REC-SVG-20010904/DTD/svg10.dtd">
<svg version="1.0" xmlns="http://www.w3.org/2000/svg"
 width="512.000000pt" height="512.000000pt" viewBox="0 0 512.000000 512.000000"
 preserveAspectRatio="xMidYMid meet">
<metadata>
Created by potrace 1.14, written by Peter Selinger 2001-2017
</metadata>
<g transform="translate(0.000000,512.000000) scale(0.100000,-0.100000)"
fill="#000000" stroke="none">
<path d="M2455 4663 c-433 -36 -872 -216 -1201 -495 -98 -82 -236 -222 -296
-298 -23 -30 -45 -57 -48 -60 -16 -13 -142 -214 -182 -290 -69 -131 -159 -364
-182 -472 -3 -13 -10 -41 -15 -63 -5 -22 -12 -62 -16 -89 -3 -27 -8 -53 -11
-57 -17 -28 -25 -411 -11 -549 47 -473 271 -943 612 -1283 115 -115 124 -123
220 -196 39 -29 78 -59 88 -67 9 -8 19 -14 22 -14 3 0 28 -16 55 -35 28 -19
50 -33 50 -30 0 2 21 -9 47 -25 26 -17 53 -30 60 -30 7 0 13 -4 13 -10 0 -5 4
-10 10 -10 5 0 38 -13 72 -29 68 -31 251 -101 266 -101 6 0 32 -7 58 -15 77
-23 174 -44 234 -51 30 -3 75 -10 100 -14 62 -11 451 -5 530 9 115 19 123 21
230 47 376 93 731 298 1008 582 117 120 241 279 308 397 15 28 31 52 34 55 13
12 121 254 152 340 44 125 88 321 106 470 4 36 7 155 6 265 -1 242 -11 312
-88 610 -2 6 -6 17 -9 25 -3 8 -18 49 -33 90 -27 74 -68 171 -84 200 -5 8 -24
44 -42 80 -18 36 -37 70 -43 76 -5 6 -21 30 -35 53 -14 23 -47 71 -73 106 -26
36 -46 65 -43 65 2 0 -10 15 -28 33 -17 18 -65 68 -107 112 -213 225 -445 387
-719 503 -158 67 -400 134 -530 148 -25 3 -56 8 -70 11 -28 6 -352 11 -415 6z
m304 -247 c63 -3 116 -7 118 -10 14 -14 -28 -53 -90 -82 -40 -18 -70 -34 -67
-34 3 -1 14 -4 25 -7 11 -3 52 -6 92 -7 62 -1 74 2 87 19 17 24 17 24 -17 27
-15 1 -27 4 -27 6 0 1 27 16 60 31 59 28 60 28 122 14 95 -22 278 -84 278 -95
0 -5 4 -7 9 -4 14 9 233 -104 329 -168 46 -31 109 -77 140 -102 67 -55 185
-165 180 -169 -2 -1 -25 -5 -53 -8 -64 -7 -79 -13 -141 -54 -34 -23 -67 -36
-100 -39 -62 -7 -77 -21 -124 -115 -21 -41 -45 -80 -52 -87 -42 -35 -119 -8
-165 58 -15 22 -45 63 -65 91 -30 40 -36 54 -28 73 8 21 6 23 -18 20 l-27 -3
30 25 c17 13 38 24 47 24 10 0 22 9 28 21 16 28 0 44 -57 59 -33 8 -43 14 -33
20 8 5 24 3 40 -5 15 -8 32 -10 40 -5 10 6 7 14 -13 34 -21 21 -32 25 -54 20
-45 -11 -48 -10 -46 13 2 17 -18 34 -95 86 -109 72 -162 101 -162 89 0 -23 36
-52 95 -77 36 -16 65 -31 65 -35 0 -15 -42 -50 -60 -50 -11 0 -25 10 -31 23
-22 41 -49 44 -49 6 0 -12 13 -25 38 -36 24 -12 38 -26 40 -41 4 -25 -18 -29
-62 -12 -17 6 -27 6 -32 -1 -3 -5 8 -15 25 -22 42 -16 39 -31 -5 -23 -34 7
-60 19 -134 64 -23 15 -52 22 -85 22 l-50 1 36 19 c34 18 89 73 89 88 -1 25
-132 113 -173 116 -50 5 -64 -9 -78 -70 -15 -65 -39 -87 -92 -81 -44 5 -53 -1
-75 -44 -11 -22 -33 -42 -65 -59 -27 -13 -69 -43 -93 -66 -42 -39 -45 -45 -43
-87 2 -26 5 -45 7 -42 2 2 21 -7 41 -20 19 -14 40 -25 44 -25 5 0 23 -6 40
-14 18 -8 68 -26 113 -41 105 -35 106 -36 113 -87 6 -41 7 -43 44 -46 44 -4
57 15 34 48 -18 26 -11 57 14 65 10 4 27 17 38 31 19 24 19 25 -5 92 -37 105
-30 142 28 142 39 0 137 -32 153 -50 93 -107 111 -115 138 -59 8 14 23 25 38
27 22 3 29 -6 62 -70 27 -56 49 -83 88 -112 59 -45 84 -79 75 -101 -3 -9 -31
-27 -63 -41 -47 -21 -72 -25 -146 -25 -99 1 -134 -12 -157 -53 -19 -36 -10
-39 31 -12 44 30 93 46 109 36 8 -5 10 -18 5 -38 -9 -43 25 -66 75 -52 49 14
65 29 90 83 12 26 32 53 43 59 18 9 24 6 44 -18 13 -16 33 -45 43 -66 l19 -36
-53 5 c-68 6 -115 -8 -189 -59 -34 -23 -75 -42 -98 -45 -48 -7 -52 10 -6 34
30 16 31 18 9 21 -28 4 -122 -56 -152 -98 -12 -17 -35 -37 -51 -46 -16 -8 -37
-30 -45 -47 -9 -18 -26 -37 -37 -43 -17 -7 -22 -18 -22 -45 0 -27 -7 -42 -25
-58 -14 -11 -27 -20 -31 -21 -3 0 -22 -16 -43 -35 l-38 -34 13 -58 c17 -76 17
-75 7 -95 -14 -28 -26 -21 -56 32 -46 83 -96 95 -262 60 -72 -15 -102 -32
-138 -76 -82 -99 -28 -244 91 -244 31 0 46 8 87 46 40 38 54 45 75 40 32 -8
31 -22 -2 -85 -32 -63 -25 -75 48 -77 45 -1 54 -4 65 -27 10 -18 11 -33 4 -51
-13 -36 5 -82 38 -95 15 -6 45 -10 67 -8 22 2 52 1 67 -4 22 -6 33 -1 65 27
39 35 61 41 92 25 12 -7 27 -5 47 5 27 14 33 14 82 -6 29 -12 59 -20 66 -17
26 10 85 -13 158 -63 40 -28 83 -50 96 -50 58 0 152 -68 152 -108 -1 -9 -7
-28 -15 -42 -22 -39 -19 -51 11 -40 39 15 64 12 35 -4 -22 -12 -23 -14 -6 -24
15 -8 22 -5 35 10 16 20 16 20 66 -2 27 -13 65 -25 84 -27 60 -7 166 -42 193
-64 49 -38 31 -108 -49 -188 -48 -47 -51 -54 -57 -154 -5 -65 -7 -70 -48 -110
-24 -23 -71 -53 -104 -67 -54 -22 -63 -30 -85 -76 -26 -53 -109 -164 -122
-164 -5 0 -8 -6 -8 -13 0 -22 -49 -61 -78 -63 -48 -3 -51 -4 -46 -17 7 -19
-11 -62 -36 -85 -12 -11 -43 -22 -71 -26 -32 -4 -49 -11 -49 -21 0 -8 -13 -22
-29 -31 -19 -11 -33 -31 -41 -57 -7 -23 -23 -57 -36 -76 -18 -26 -21 -38 -12
-48 6 -7 8 -17 4 -20 -8 -8 -12 -9 -163 -28 -23 -2 -33 1 -33 10 0 7 -7 15
-15 19 -13 5 -11 12 10 44 36 54 40 82 29 173 -4 34 1 67 19 125 26 82 33 122
42 239 3 39 8 77 11 86 2 9 7 52 9 94 l4 78 -47 44 c-26 24 -67 63 -92 86 -59
54 -163 214 -162 247 4 91 19 152 51 196 41 59 50 104 27 140 -15 23 -22 25
-56 19 -62 -10 -105 15 -192 114 -21 24 -36 31 -62 31 -24 0 -45 9 -68 29 -51
43 -71 51 -124 45 -40 -5 -57 -1 -96 20 -27 14 -69 37 -94 51 -56 30 -78 53
-114 126 -16 30 -35 61 -44 68 -9 8 -16 17 -16 21 0 6 -30 43 -90 110 -14 16
-35 31 -48 35 -23 7 -23 7 -7 -31 9 -21 28 -54 43 -73 90 -118 100 -165 12
-55 -45 57 -123 169 -137 199 -9 19 -39 50 -69 70 -54 37 -91 84 -115 145 -14
35 -17 163 -7 245 5 37 -12 91 -32 105 -19 14 -80 123 -74 132 5 7 2 8 -6 3
-8 -5 -17 -2 -24 6 -6 8 -32 30 -58 49 -27 18 -48 37 -48 41 0 26 330 339 358
339 6 0 12 4 14 8 9 23 248 164 351 207 36 15 36 15 52 -15 17 -33 42 -49 79
-52 31 -3 33 -11 5 -39 -19 -19 -28 -20 -109 -14 -67 5 -94 4 -115 -7 l-27
-15 30 -21 c36 -26 48 -27 56 -6 6 15 18 16 99 10 162 -13 159 -13 168 12 7
19 5 24 -14 31 -22 9 -21 9 6 16 18 5 35 2 52 -9 21 -14 24 -20 15 -37 -23
-41 19 -55 46 -14 15 23 15 27 0 50 -9 13 -25 29 -37 36 l-21 11 23 24 c28 30
44 30 73 1 18 -19 25 -20 35 -10 7 7 23 11 37 9 14 -3 22 -1 19 5 -4 5 -13 9
-20 9 -12 0 -12 5 -3 28 20 48 39 59 122 70 43 6 83 15 89 21 7 7 4 9 -9 6
-10 -2 -61 -11 -111 -21 -64 -11 -107 -25 -138 -45 -54 -34 -81 -37 -90 -9 -5
14 2 32 20 55 14 19 29 35 33 36 4 0 16 2 27 5 11 2 38 7 60 10 22 3 46 7 54
10 7 2 64 7 125 10 61 4 113 8 114 9 2 2 9 2 15 0 7 -2 63 -6 126 -9z m1680
-1298 c16 -49 61 -231 58 -234 -1 -2 -14 -5 -29 -8 -21 -3 -37 4 -72 36 -45
39 -46 41 -46 99 0 59 15 99 50 126 23 18 27 16 39 -19z m87 -425 c11 -135 4
-419 -11 -443 -2 -3 -6 -28 -9 -56 -7 -54 -31 -153 -40 -161 -13 -14 -118 74
-175 145 l-33 43 -2 131 c-1 120 1 133 19 150 11 10 27 38 36 61 11 28 31 52
60 72 23 17 53 51 66 75 13 25 33 55 45 67 29 31 36 18 44 -84z"/>
</g>
</svg>
